<?xml version="1.0" encoding="utf-8"?>
<!-- Generator: Adobe Illustrator 27.6.1, SVG Export Plug-In . SVG Version: 6.00 Build 0)  -->
<svg version="1.1" id="Vrstva_1" xmlns="http://www.w3.org/2000/svg" xmlns:xlink="http://www.w3.org/1999/xlink" x="0px" y="0px"
	 viewBox="0 0 595.3 841.9" style="enable-background:new 0 0 595.3 841.9;" xml:space="preserve">
<style type="text/css">
	.st0{fill:#FFFFFF;}
	.st1{fill:#898989;stroke:#000000;stroke-width:19;stroke-miterlimit:10;}
	.st2{fill:none;stroke:#000000;stroke-miterlimit:10;}
	.st3{stroke:#000000;stroke-miterlimit:10;}
	.st4{display:none;}
	.st5{display:inline;fill:none;}
	.st6{display:inline;stroke:#000000;stroke-miterlimit:10;}
</style>
<path class="st0" d="M-27.2,593.4"/>
<g>
	<circle class="st1" cx="297.6" cy="502.1" r="261.9"/>
	<g>
		<g>
			<g>
				<g>
					<g>
						<path class="st0" d="M530.5,403.7c-6.3-12.9-16.2-32.7-20.2-37.5c-8.3,7.9-25.7,24.4-26.8,25c-1.5,0.8-35.2,20.4-35.2,20.4
							l-10.3,4.2l-14.2-3.2L392,424.6l-25.9,13.7l-7.8,10.5l-9,7.2l-12.6,5.1l-12.8,7.1l-14.3,7.6c0,0-2.2,1.2-3.5,4.2
							c-1.3,3,5.4,11.2,5.4,11.2s7.2,4.9,10.8,3.6s15.8-5.2,15.8-5.2l13.7-10.5l13.6-6.7l9.2-1.8l0.9,3.1l-2.2,9.7l-6.1,10.7
							c0,0-1.5,6.5-2.1,7.5s-5.5,11.1-6,12.8c-0.5,1.7-8.2,12.5-8.2,12.5l-8.4,14.4l-2.8,2.4l-8,8.1l-5.5,7.9l-12.4,11.2
							c0,0-3.6,2.5-4.3,5.2c-0.7,2.7-2.1,6-1.2,7.6c0.9,1.6,5.4,6.2,5.4,6.2s1.4,0.3,5.1-0.3c3.7-0.6,8.6-4.2,8.6-4.2l2.4-0.7
							l3.9,2.1l5.4,0l5.6-2l6.7-3.2l4.8-2l4.5,0.3l7.4,0.1l5.2-2.1l2.5-2l4.6,2.9l8.1,3.2l8.3-2.7l4.6-5.2l7-9.6l3.4-4.5l4,1
							l6.4-4.2l28.5-15l7.9-13.8l14.4-17.2l10.8-13.9l10-25.7l19.3-16.4l25.6-18.1l2.1-1.6C537.8,422.5,533.7,413.4,530.5,403.7z"/>
						<path d="M530.5,403.7c-6.3-12.6-12.5-26-20.2-37.5c-6.7,6.4-18,17.1-24.6,23.2c-1.2,1.1-2.5,2.1-3.9,2.9
							c0,0-33.4,19.6-33.4,19.6c0,0-10.3,4.3-10.4,4.3c0,0-0.1,0.1-0.1,0.1s-0.1,0-0.1,0s-14.2-3.1-14.2-3.1l0.3,0
							c0.1,0-31.9,12.4-31.5,12.3c0,0-25.8,13.9-25.8,13.9s0.3-0.3,0.3-0.3l-7.7,10.5l-0.1,0.1l-0.1,0.1c0,0-8.9,7.2-8.9,7.2
							S350,457,350,457s-0.2,0.1-0.2,0.1l-12.6,5.2c0,0,0.1-0.1,0.1-0.1c-6.2,3.7-15.3,8.5-21.5,12c0,0-5.4,2.9-5.4,2.9
							c-1,0.6-2,1.7-2.5,2.8c-0.2,0.3-0.5,0.9-0.4,0.9c-0.1,0.4,0.2,1.3,0.5,2.1c1.2,2.6,3,5.1,4.8,7.3c0,0-0.3-0.3-0.3-0.3
							c1.8,1.2,3.9,2.3,5.9,3c1.4,0.4,2.5,0.7,3.7,0.3c0,0,0.4-0.1,0.4-0.1s1.7-0.6,1.7-0.6l13.4-4.5l-0.5,0.3
							c0,0,13.7-10.6,13.7-10.6s0.1-0.1,0.1-0.1s0.2-0.1,0.2-0.1l13.6-6.8c0,0,0.2-0.1,0.2-0.1s0.3-0.1,0.3-0.1
							c1.2-0.3,9.9-1.9,10.9-2.1c0.4,1.3,1.1,4,1.5,5.3c0,0-0.1,0.5-0.1,0.5l-2.2,9.7c0,0-0.1,0.3-0.1,0.3s-0.1,0.3-0.1,0.3
							l-6.1,10.7c0,0,0.2-0.5,0.2-0.5c-0.6,2.6-1.1,5.1-2.1,7.6c-1.7,3.2-3.2,6.5-4.7,9.8c-0.7,1.3-1.2,3.2-1.9,4.4
							c-0.8,1.5-1.7,2.7-2.5,4c-1.6,2.3-4,5.8-5.2,7.5c0,0-8.4,14.4-8.4,14.4s-0.2,0.3-0.2,0.3l-0.2,0.2l-2.8,2.4
							c0,0,0.1-0.1,0.1-0.1s-8,8-8,8s0.2-0.2,0.2-0.2l-5.6,7.9c0,0-0.1,0.2-0.1,0.2l-0.2,0.1l-12.4,11.2c-1.6,1.2-3.4,2.7-3.9,4.6
							c-0.4,1.7-1.2,3.6-1.4,5.2c0,0.9-0.1,0.6,0.5,1.4c1.4,1.8,3,3.5,4.6,5.1c0,0-0.9-0.5-0.9-0.5c1.5,0.1,3.3-0.1,4.8-0.4
							c2.7-0.6,5.2-2.2,7.5-3.8c0,0,0.3-0.2,0.3-0.2s0.3-0.1,0.3-0.1c0.6-0.2,2.6-0.8,3.1-0.9c0,0,0.6,0.3,0.6,0.3s3.9,2.1,3.9,2.1
							s-0.8-0.2-0.8-0.2s5.4,0.1,5.4,0.1s-0.6,0.1-0.6,0.1l5.6-2l-0.1,0.1c3.5-1.7,8.4-3.9,12-5.3c1.2,0.1,3.6,0.3,4.8,0.4
							c0.9,0,6.4,0.1,7.4,0.1c0,0-0.6,0.1-0.6,0.1l5.2-2.1l-0.4,0.2c0,0,2.5-2,2.5-2s0.8-0.6,0.8-0.6s0.8,0.5,0.8,0.5
							s4.6,2.9,4.6,2.9l-0.2-0.1c0,0,8.1,3.2,8.1,3.2s-0.9,0-0.9,0s8.3-2.6,8.3-2.6l-0.6,0.4c0,0,4.6-5.2,4.6-5.2l-0.1,0.1
							c3.2-4.4,7.6-10.4,10.9-14.6c0,0,0.7,0.2,0.7,0.2s4,1,4,1s-0.8,0.1-0.8,0.1l6.4-4.2c0.1,0,28.6-14.8,28.7-14.9
							c0,0-0.3,0.3-0.3,0.3l8-13.7c0,0,0-0.1,0-0.1s0,0,0,0c0.8-1,14-16.5,14.5-17.2c2.9-3.7,7.9-10.1,10.8-13.7
							c-0.1,0.4,10-25.7,10.1-25.6c0,0,0-0.1,0-0.1s0,0,0,0c0,0,19.3-16.3,19.3-16.3c0,0,13.9-9.8,13.9-9.8
							c3.6-2.6,10.3-7.2,13.8-9.8C538.3,424.2,534,414.1,530.5,403.7L530.5,403.7z M530.5,403.7c3.6,10.4,7.9,20.5,10.5,31.2
							c-2.2,1.8-4.6,3.3-6.9,5c-4.1,2.9-16.4,11.7-20.7,14.8c0,0-19.2,16.4-19.2,16.4c0.3-0.5-9.9,25.8-9.8,25.7c0,0,0,0.1-0.1,0.1
							c-2.9,3.8-7.8,10.2-10.6,13.9c-0.5,0.6-13.4,16.3-14.3,17.4c0.3-0.5-7.9,13.8-7.8,13.7c0,0-0.1,0.2-0.1,0.2s-0.2,0.1-0.2,0.1
							c0-0.1-28.7,15.4-28.3,15.2c0,0-6.4,4.3-6.4,4.3s-0.4,0.2-0.4,0.2s-0.4-0.1-0.4-0.1s-4-1-4-1s1.1-0.4,1.1-0.4
							c-1.5,2-3.7,5-5.1,7c0,0-5.1,7.1-5.1,7.1c0,0,0,0,0,0l-4.5,5.3c0,0-0.2,0.3-0.2,0.3c-0.3,0.1-8.9,2.9-9.1,3
							c0,0-0.4-0.2-0.4-0.2s-8.1-3.1-8.1-3.1c-0.1,0-0.2-0.1-0.2-0.1c0,0-4.7-2.9-4.7-2.9l1.6-0.1l-2.5,2l-0.2,0.1l-0.2,0.1
							c0,0-5.2,2.1-5.2,2.1l-0.3,0.1c0,0-0.3,0-0.3,0c-1.1,0-6.5,0-7.5,0c-1-0.1-3.5-0.2-4.5-0.3c0,0,0.7-0.1,0.7-0.1
							c-3.4,1.4-8.1,3.6-11.4,5.3c0,0-0.1,0-0.1,0s-0.1,0-0.1,0s-5.6,2.1-5.6,2.1l-0.3,0.1c0,0-0.3,0-0.3,0s-5.4,0-5.4,0
							s-0.4,0-0.4,0s-0.4-0.2-0.4-0.2s-3.9-2.1-3.9-2.1s1.3,0.1,1.3,0.1s-2.4,0.8-2.4,0.8s0.5-0.3,0.5-0.3c-1.1,0.8-2.1,1.5-3.3,2.1
							c-2.3,1.4-4.9,2.5-7.6,2.7c-1.6,0.2-3.2,0.3-4.8,0c-1.9-1.9-3.7-3.7-5.4-5.9c-0.3-0.5-0.7-0.8-1-1.8c-0.7-2.8,0.7-5.4,1.3-8
							c0.1-0.6,0.4-1.2,0.6-1.7c1.1-2.1,2.6-3.5,4.5-4.8c0,0-0.2,0.2-0.2,0.2s12.3-11.3,12.3-11.3l-0.3,0.3l5.5-7.9
							c0,0,0.1-0.1,0.1-0.1s0.1-0.1,0.1-0.1c0.1-0.1,7.9-8.1,8-8.1c0,0,0.1,0,0.1,0l2.8-2.4l-0.4,0.5c0.1-0.1,8.3-14.4,8.4-14.5
							c1.8-2.5,3.6-5.1,5.3-7.6c0.9-1.4,2-3,2.7-4.4c1.5-4.1,3.5-7.9,5.4-11.9c0.2-0.4,0.6-1.2,0.8-1.4c0.8-2.2,1.3-4.6,1.8-6.8
							c0,0,0.1-0.3,0.1-0.3s0.1-0.2,0.1-0.2s6.1-10.7,6.1-10.7l-0.2,0.5c0,0,2.2-9.7,2.2-9.7l0,1c0,0-0.9-3.1-0.9-3.1l2.2,1.4
							l-9.2,1.7c0,0,0.5-0.2,0.5-0.2l-13.7,6.7c0,0,0.3-0.2,0.3-0.2l-13.8,10.5l-0.2,0.2c0,0-0.3,0.1-0.3,0.1
							c-0.7,0.2-15.1,5-15.1,4.9c-2,0.9-4.5,0.5-6.3-0.2c-2.5-0.9-4.7-2.1-6.9-3.6c0,0-0.1-0.2-0.1-0.2c-2-2.6-3.8-5.2-5.1-8.2
							c-0.5-1.2-0.9-2.4-0.7-3.8c0.7-2.4,2.4-4.4,4.5-5.8c8.4-4.4,18.7-9.9,27.1-14.5c0,0,0.1,0,0.1-0.1c0,0,12.6-5.1,12.6-5.1
							s-0.3,0.2-0.3,0.2l9-7.1c0,0-0.2,0.2-0.2,0.2l7.8-10.4l0.1-0.2c0,0,0.2-0.1,0.2-0.1c0,0,26-13.5,26-13.5
							c0.2,0,31.8-12,31.9-12c0,0,0.2,0,0.2,0s14.2,3.3,14.2,3.3s-0.3,0-0.3,0c0,0,10.6-4.2,10.3-4.1c1.4-1.1,37.5-20.9,37.4-22
							c6.8-6.1,18.1-16.8,24.7-23.1c2.2,2.6,4,6,5.7,9.1C521.1,384.5,525.8,394.1,530.5,403.7L530.5,403.7z"/>
					</g>
					<g>
						<path d="M376.5,534.7c-2.3,5.4-4.8,10.7-7.9,15.7c0,0,0.2-1.1,0.2-1.1c0.1,0.7-0.1,1.2-0.5,1.8c-1.1,1.5-2.8,2.1-4.4,2.8
							c0,0-4.6,2-4.6,2l1.1-1.1c-0.4,1.6-0.9,3.1-1.4,4.7c-2.5,1.4-5.1,2.9-7.6,4.2c-2.1,0.9-5.1,2.1-7.3,3c0,0,0.3-0.1,0.3-0.1
							c-2,1.1-4.7,2.8-6.7,3.9c0,0,0.4-0.3,0.4-0.3c-1.7,1.8-5.3,5.5-7.1,7.2c0,0,0.3-0.6,0.3-0.6c-0.2,1.5-0.4,3-0.5,4.5
							c0,0,0-0.1,0-0.1l0.3,3c0,0-0.2-0.3-0.2-0.3c0.8,0.4,1.6,0.7,2.4,1.1c-0.9-0.2-1.8-0.3-2.7-0.5c0,0-0.1-0.2-0.1-0.2
							s-0.9-2.9-0.9-2.9c-0.1-1.6-0.2-3.1-0.2-4.7c0,0,0-0.3,0-0.3s0.3-0.4,0.3-0.4c1.5-2,4.6-6,6.2-8c0,0,0.1-0.1,0.1-0.1
							s0.3-0.2,0.3-0.2c1.8-1.3,4.5-3.1,6.4-4.3c0,0,0.2-0.1,0.3-0.1c2-0.9,5-2.2,7.1-3.1c1.3-0.7,4.7-2.6,6.7-3.6
							c0,0-0.9,1.1-0.9,1.1c0.4-1.3,0.9-2.6,1.4-3.9l0.3-0.9c0.4-0.1,5-1.8,5.5-2c1-0.4,2.4-0.8,3.2-1.4c0,0,0,0,0,0
							c0,0,0,0.1,0,0.1c0,0.2,0,0.1,0,0.5c0,0,0.2-1.1,0.2-1.1C369.7,544.1,372.9,539.3,376.5,534.7L376.5,534.7z"/>
					</g>
					<g>
						<path d="M420.3,537.4c-2.7,1.2-6.8,3.3-9.6,4.5c-2.9,0.8-8.3,2.1-11.2,2.8c-2.4-0.1-5.8-0.3-8.2-0.4c0,0,1-0.2,1-0.2
							c-1.7,0.9-3.5,1.8-5.3,2.7c0,0,0.5-0.4,0.5-0.4l-3.7,3.7l0.6-1.5c0,0,0.1,4.8,0.1,4.8l-0.6-1.4c1.4,1.4,2.9,2.9,4.3,4.3
							l-0.8-0.5c1.8,0.6,5.6,1.5,6.5,1.9c0,0,4.7,0.7,4.7,0.7c1.3,0.2,3.9,0.6,4.5,0.8c2.5,0,5,0.1,7.4,0.2c1.4,0.1,3,0.3,4.4,0.4
							c-1,0.1-2,0.3-2.9,0.4c-3,0.3-6,0.9-8.9,1.2c-2.8-0.1-6.7-0.3-9.5-0.4c-2.5-0.5-5-1.1-7.5-1.7c-1.8-1.7-3.7-3.4-5.5-5.1
							c0-1.2-0.2-5.3-0.2-6.5c0.6-0.5,3.9-3.9,4.5-4.5c2-1,4.1-2,6.1-2.9c0,0,0.5,0,0.5,0c2.3,0.3,5.6,0.6,7.9,0.9c0,0-0.4,0-0.4,0
							c2.8-0.4,8.4-1.2,11.1-1.5C412.5,539.3,417.1,537.9,420.3,537.4L420.3,537.4z"/>
					</g>
					<g>
						<path d="M387.7,558c-4.3-0.9-8.6-2.1-12.8-3.4c-1.3-0.2-4.4-0.8-6.4-1.2c0,0,0.8,0,0.8,0c-2.5,0.6-4.9,1.1-7.4,1.6
							c-1,0.1-1.9,0.8-2.1,1.8c0,0,0.1-0.5,0.1-0.5c-0.1,1.4-0.2,2.9-0.3,4.3l-0.5-1.4c1.5,1.9,3.1,3.7,4.6,5.6l-0.4-0.3
							c3.9,2.7,7.7,5.8,11.2,8.9c0.6,0.3,3.3,1.7,4.5,2.4c-1.7-0.3-3.5-0.7-5.2-1.1c-4.1-2.3-8.4-4.9-12.4-7.2c-2-2-3.8-4.2-5.7-6.3
							c0-1.8,0.1-3.6,0.2-5.4c0.5-2.7,3.5-4.8,5.5-4.8c2.4-0.4,4.9-0.8,7.3-1.2l0.5-0.1l0.3,0.1c2.2,0.6,4.3,1.3,6.5,2
							C379.9,553.9,383.9,555.8,387.7,558L387.7,558z"/>
					</g>
				</g>
				<g>
					<path d="M440.8,439.7c-9.7,9.4-20.6,17.3-31.7,24.8c-5.7,1.7-11.7,3.3-17.5,4.6c-2.3,0.4-4.6,0.7-6.9,1
						c-2.3,0.3-4.6,0.5-6.9,0.7c2.2-0.8,4.3-1.6,6.5-2.3c2-0.7,4.8-1.5,6.5-2c5.5-2,11.3-4,16.9-5.8c0,0-0.5,0.3-0.5,0.3
						c6.1-4.3,12.3-8.4,18.7-12.3C430.7,445.6,435.6,442.5,440.8,439.7L440.8,439.7z"/>
				</g>
				<g>
					<path d="M369.5,512.5c9,1.3,17.9,3.1,26.7,5.2c0,0-0.5-0.1-0.5-0.1c5.9-0.3,11.8-0.5,17.7-0.6c5.9-0.1,11.8-0.1,17.7,0.1
						c0,0-0.8,0.2-0.8,0.2c2.6-1.4,6.3-3.4,8.9-4.8c3-1.5,6-3.1,9.1-4.4c-2.6,2.1-5.4,4.1-8.1,6.1c-2.6,1.8-6,4.2-8.6,5.9
						c-6.1,0.4-12.1,0.7-18.2,0.9c-6,0.2-12,0.2-18,0.2C386.7,518.6,378,515.8,369.5,512.5L369.5,512.5z"/>
				</g>
				<g>
					<path d="M443.4,465.6c-3.3,9.4-9,18-15.8,25.4c-10.8,12.9-27,21.8-44,21.4c12.7-2.9,24.6-8.4,34.3-17.2
						C427.7,486.3,436.2,476.6,443.4,465.6L443.4,465.6z"/>
				</g>
			</g>
			<path class="st2" d="M401.4,464.8"/>
		</g>
		<polyline class="st2" points="446.2,416.8 459.3,432.1 477.7,442 491.5,455.3 		"/>
	</g>
	<polygon class="st3" points="158.7,310.7 228.6,418.9 131.5,437.7 121.4,449.3 132.3,466.2 244.2,443 423.6,720.6 448.4,704.6 
		274,434.7 358.4,420.4 369,407.8 359.2,392.6 257.4,411.9 182.2,295.6 167,297.7 	"/>
	<g>
		<g>
			<path class="st0" d="M298.7,520.1l-11.5-3.9l-10.7-4.4l-37.8-9.2l-4.5,0.4l-8.7,3.2l-2.9-0.8l-2.1-0.6l21.9-12.5l16.3-9.4l10-6.8
				c0,0,4.1-3.2,5.3-11.2c1.2-8-9.4-4.8-9.4-4.8l-18.9,7.5L211.1,483l-8.1,3.9L168.4,514l-19.1,13.5l-29.8,52.8l-15.8,25l-25.5,22.4
				l-0.9,0.3c4.3,10,14.6,23.6,20.3,33.3c5,5.2-2.3-2.1,4.1,3.7c1.7,2.3,11.5,12.6,13.5,14.8c16.7-9.5,29.8-19.2,29.8-19.2
				l30.2-27.1l31.8-35.7l23.1-15.3l8-0.6l4-0.3l9.4-0.7l11.2,5.4l10.9,1.8l2.7-5.6l-6.5-8.9l-8.4-9.2l-22.1-4.8l-23,4.5l1.6-3.9
				l24.8-10.5l23.8,7.4l12.4,9.8l5.8,1.2c0,0,2.7,0.5,6.2-2.9c3.5-3.4,2-5,2.4-5.7c0.4-0.8-7.2-5.7-7.2-5.7l-6.8-7l-4.6-5.3
				l-4.9-2.9l-13.7-7.3l-7.2-3.8l10.1-0.8l12.2,2.8l10.1,2.5l7.2,2.4c0,0,3.4,0.9,6.4,0.1c3.1-0.8,6.5-1.7,8.6-5.2
				c2.1-3.5,2.2-6.3,2.2-6.3L298.7,520.1z"/>
			<path d="M298.7,520.1c0,0-11.2-3.8-11.2-3.8c-3.1-1.2-7.8-3.2-11-4.5c0.1,0-38-9.1-37.8-9.1c0,0-4.5,0.4-4.5,0.4
				c0.2-0.1-8.7,3.3-8.7,3.2c0,0-0.1,0-0.1,0s-0.1,0-0.1,0s-5.1-1.4-5.1-1.4s-0.5-0.1-0.5-0.1s0.4-0.2,0.4-0.2
				c0,0,38.3-22,38.2-21.9c0,0,7.8-5.3,7.8-5.3s1.9-1.3,1.9-1.3c0.6-0.4,1.1-1,1.6-1.6c1.9-2.5,3-5.5,3.5-8.5
				c0.7-3.2-0.1-5.9-4.1-5.9c-1.4-0.1-3.2,0.3-4.5,0.6c-3.3,1.4-16.5,6.6-19.4,7.9c-10.3,4.6-24.1,10.8-34.4,15.5
				c0,0-7.5,3.7-7.5,3.7s0.2-0.1,0.2-0.1c-5,4-28.5,22.7-33,26.2c-1.8,1.5-4.9,3.5-6.8,5c0,0-13.7,9.8-13.7,9.8s0.4-0.4,0.4-0.4
				c-7.9,13.7-25.1,46-33.3,59c0,0-12,19.1-12,19.1l-0.1,0.2c0,0-0.2,0.2-0.2,0.2s-25.4,22.4-25.4,22.4s-0.3,0.3-0.3,0.3
				s-0.4,0.1-0.4,0.1s-0.9,0.3-0.9,0.3s1.1-2.5,1.1-2.5c2.6,5.8,6.1,11.3,9.6,16.6c3.1,4.9,8.4,12.4,10.4,16.1
				c0.5,0.5,1.5,1.5,2,2.1c1.6,2-1.1,4.3-2.9,2.6c-0.4-0.4-0.7-0.7-0.9-1.2c0,0-0.1-0.1-0.1-0.1s-0.1-0.1-0.1-0.1c0-0.1,0,0-0.1-0.3
				c-0.1-0.3,0-0.5,0-0.8c0,0,0-0.1,0.1-0.3c0.4-1.1,1.7-1.5,2.7-1c0.1,0.1,0.3,0.2,0.5,0.3c0.3,0.2,1,0.8,1.4,1.1
				c0,0,1.4,1.2,1.4,1.2s0.1,0.1,0.1,0.1c3.5,4.4,9.7,10.6,13.5,14.8c0,0-2.5-0.4-2.5-0.4c10.2-5.8,20.2-12.1,29.7-19
				c-0.9,0.8,30.9-27.6,30-26.7c0.2-0.2,31.8-35.6,32-35.8c0.4-0.2,22.9-15.1,23.3-15.3c0,0,0.3-0.2,0.3-0.2s0.4,0,0.4,0l21.4-1.6
				c0,0,0.4,0,0.4,0s0.3,0.2,0.3,0.2l11.2,5.5c0,0-0.4-0.1-0.4-0.1s10.9,1.9,10.9,1.9l-1.4,0.7l2.7-5.6l0.1,1.3l-6.5-9l0.1,0.1
				c0,0-8.3-9.3-8.3-9.3s0.6,0.3,0.6,0.3s-22.1-5-22.1-5l0.4,0l-23,4.4c0,0-1.6,0.3-1.6,0.3s0.6-1.5,0.6-1.5s1.7-3.9,1.7-3.9
				l0.1-0.3c0,0,0.3-0.1,0.3-0.1l24.8-10.3c0,0,0.2-0.1,0.2-0.1s0.2,0.1,0.2,0.1l23.7,7.6l0.1,0l0.1,0.1c0,0,12.4,9.9,12.4,9.9
				l-0.2-0.1c0,0,3.5,0.7,3.5,0.7s1.8,0.4,1.8,0.4c2.9,0.6,5.5-1.6,7.3-3.6c1-1.1,1.6-2.4,1.3-3.9c0-0.2,0-0.3,0-0.5l0.1-0.2
				c-1.7-1.9-4.7-3.8-7.1-5.4c0,0-5.9-6-5.9-6c-1.6-1.6-4.2-4.8-5.5-6.3c-7-4.4-18.4-10-25.7-14c0,0-0.5-0.3-0.5-0.3s0.6,0,0.6,0
				c0,0,10.1-0.8,10.2-0.8c6.4,1.4,16,3.7,22.3,5.3c0,0,7.4,2.5,7.4,2.5c3.8,1,7.8,0,11.3-1.7c3.5-1.9,5.3-5.9,5.8-9.6
				C305.7,523.1,298.7,520.1,298.7,520.1L298.7,520.1z M298.7,520.1c0,0,7,2.9,7,2.9c-0.4,3.8-2.3,7.8-5.8,9.7
				c-3.5,1.8-7.5,2.8-11.3,1.8c0,0-7.4-2.5-7.4-2.5c-6.3-1.6-15.9-3.8-22.3-5.2c0.2,0-10.1,0.8-10.1,0.8c0,0,0.1-0.3,0.1-0.3
				s13,6.8,13,6.8c3.7,1.9,9.3,4.9,12.8,7.1c1.6,1.8,3.9,4.6,5.6,6.3c0,0,5.9,6,5.9,6c2.2,1.6,5.2,3.2,7.2,5.5
				c0.1,0.1,0.2,0.4,0.1,0.6c-0.1,0.4,0.1,0.9,0,1.3c0,1.3-0.7,2.5-1.5,3.4c-1.8,2.1-4.5,4.4-7.5,4.1c-1.3-0.2-4.4-0.9-5.7-1.1
				c0,0-0.1,0-0.1,0s-0.1-0.1-0.1-0.1l-12.5-9.7c0,0,0.2,0.1,0.2,0.1s-23.8-7.3-23.8-7.3s0.4,0,0.4,0l-24.7,10.6
				c0,0,0.4-0.4,0.4-0.4s-1.6,3.9-1.6,3.9s-0.9-1.2-0.9-1.2l23-4.6c0,0,0.2,0,0.2,0l0.2,0c0,0,22.1,4.7,22.1,4.7s0.3,0.1,0.3,0.1
				s0.2,0.3,0.2,0.3s8.4,9.2,8.4,9.2s0,0,0,0s0,0.1,0,0.1l6.6,8.9c0,0,0.4,0.6,0.4,0.6s-0.3,0.7-0.3,0.7c-0.3,0.6-2.9,6.1-3.1,6.5
				c0,0-1-0.2-1-0.2s-10.9-1.8-10.9-1.8l-0.2,0c0,0-0.2-0.1-0.2-0.1l-11.2-5.3l0.7,0.1l-21.4,1.8c0,0,0.7-0.3,0.7-0.3l-23,15.4
				c1.6-1.5-31.7,35.8-31.4,35.5c0,0-0.1,0.1-0.1,0.1s-0.1,0.1-0.1,0.1c-0.1,0-30.2,27.3-30.3,27.3c-9.7,7-19.6,13.4-30,19.4
				c0,0-1.4,0.8-1.4,0.8s-1.1-1.2-1.1-1.2c-3.2-3.4-8.9-9.5-11.9-12.9c-0.6-0.7-1.1-1.3-1.7-2.1c0,0,0.3,0.3,0.3,0.3
				c-0.5-0.4-1.5-1.4-2-1.8c0,0-0.3-0.3-0.3-0.3s-0.1-0.1-0.1-0.1c0,0,0,0,0,0c0.3,0.2,0.8,0.3,1.2,0.3c1.2-0.1,2-1.4,1.6-2.5
				c0,0,0-0.1,0-0.1s-0.1-0.2-0.1-0.2c-0.1-0.1-0.1-0.1-0.1-0.2c0,0,0,0,0,0c0,0,0.1,0.1,0.1,0.1s0.1,0.1,0.1,0.1s0.1,0.1,0.1,0.1
				l0,0c0,0-0.1-0.1-0.1-0.1c0,0,0,0,0,0c0.1,0.1-0.3-0.3-0.8-0.4c-0.5-0.2-1.3,0-1.7,0.4c-0.4,0.3-0.5,0.6-0.6,0.8
				c-0.3,0.5-0.2,1.5,0.3,2c0,0,0,0,0,0s0,0,0,0s-0.1-0.1-0.1-0.1s-0.1-0.2-0.1-0.2s-0.3-0.3-0.3-0.3s-1.2-1.3-1.2-1.3
				c-7.1-11.8-15.9-23-21.4-35.8c0,0,2-0.6,2-0.6s0.9-0.3,0.9-0.3s-0.7,0.4-0.7,0.4s25.5-22.3,25.5-22.3l-0.3,0.4l12.1-19
				c0.6-1,3.3-5.1,3.8-5.9c0.4-0.7,1.7-2.9,2.1-3.7c3.7-6.5,24-41.9,28.2-49.2c4.9-3.5,16.2-11.1,20.9-14.6
				c4.6-3.5,28.4-22,33.4-25.9c8.6-4.4,21.8-9.7,30.6-13.7c4.3-1.8,11.1-5,15.4-6.6c0,0,15.6-6.1,15.7-6.1c5.2-1.5,11.6-0.8,9.8,6.4
				c-0.9,4.7-3.1,9.5-7.4,11.8c0,0-7.8,5.3-7.9,5.3c0,0-38.3,21.8-38.3,21.8s0-0.4,0-0.4s5,1.4,5,1.4s-0.1,0-0.1,0
				c0,0,8.7-3.2,8.8-3.2c0,0,4.5-0.3,4.5-0.3l0,0l0,0c0,0,37.8,9.2,37.8,9.3c3.1,1.3,7.8,3.3,11,4.5
				C287.5,516.3,298.7,520.1,298.7,520.1L298.7,520.1z"/>
		</g>
		<g>
			<path d="M179.7,521.7c0.4,0.3,1.6,0,2.1,0c0,0,2.2-0.2,2.2-0.2s-0.4,0.1-0.4,0.1c1.5-1,2.9-1.8,4.4-2.7c4.5-2.6,9-5.3,13.7-7.4
				c6.5-2.6,12.8-5.2,19.6-7.1c-5.5,4.4-11.5,7.8-17.9,10.6c-6.2,3.2-12.4,6.1-19.1,8c0,0-0.3,0.1-0.3,0.1s-0.1,0-0.1,0
				c-1.3-0.2-2.6-0.5-3.8-1C180,521.9,179.8,521.9,179.7,521.7L179.7,521.7z"/>
		</g>
		<g>
			<path d="M199.1,538c2.4-1.3,6.1-2.9,8-3.6c3.2-1.9,6.6-3.7,9.9-5.4c4.6-1.9,9.3-3.6,14-5.2l-0.3,0.1c1.7-0.8,3.3-1.7,5-2.5
				c0,0,0.6-0.3,0.6-0.3c1.6,0.4,3.2,1,4.8,1.4c2.1,1.3,4.1,2.6,6.1,4c-2.4-0.6-4.7-1.3-7-2.1c0,0,0.2,0.1,0.2,0.1
				c-1.4-0.2-2.9-0.3-4.3-0.5c0,0,1-0.2,1-0.2c-1.6,1.1-3.2,2.1-4.8,3.1c-4.6,2-9.3,3.8-14.1,5.5c-2.8,1.2-7.1,2.9-10.4,4.1
				C205,537.3,202.1,537.7,199.1,538L199.1,538z"/>
		</g>
		<g>
			<path d="M199.8,566.7c4.6-3.5,10.9-4.5,16.4-2.7C211.6,567.5,205.3,568.6,199.8,566.7L199.8,566.7z"/>
		</g>
	</g>
</g>
<g id="Vrstva_2_00000005949009900071207510000017275481473706582950_" class="st4">
	<polygon class="st5" points="-208.9,-476.5 -208.9,68 -608.7,-88.2 -673.1,-69.8 -673.1,15.2 -208.9,189.8 -208.9,1587.9 
		-80.2,1587.9 -80.2,228.5 262.1,371.4 331,351 331,274.9 -87.1,109.4 -87.1,-476.5 -148,-503.7 	"/>
	<polygon class="st6" points="199.1,305.1 267,410.1 170.4,429.9 160.3,441.4 170.9,457.8 282.2,433.6 456.4,703.2 481.2,687.2 
		311.8,425.1 395.6,409.9 406.4,397.5 396.9,382.8 295.6,403 222.6,290 207.5,292.3 	"/>
</g>
</svg>
