<?xml version="1.0" encoding="utf-8"?>
<!-- Generator: Adobe Illustrator 27.6.1, SVG Export Plug-In . SVG Version: 6.00 Build 0)  -->
<svg version="1.1" id="Vrstva_1" xmlns="http://www.w3.org/2000/svg" xmlns:xlink="http://www.w3.org/1999/xlink" x="0px" y="0px"
	 viewBox="0 0 595.3 595.3" style="enable-background:new 0 0 595.3 595.3;" xml:space="preserve">
<style type="text/css">
	.st0{fill:#898989;stroke:#020203;stroke-width:19;stroke-miterlimit:10;}
	.st1{fill:#FFFFFF;}
	.st2{fill:#020203;}
	.st3{fill:none;stroke:#020203;stroke-miterlimit:10;}
	.st4{fill:#020203;stroke:#020203;stroke-miterlimit:10;}
</style>
<g>
	<circle class="st0" cx="297.9" cy="298.3" r="287.1"/>
	<g>
		<g>
			<g>
				<g>
					<g>
						<path class="st1" d="M553.1,190.4c-6.9-14.1-17.7-35.9-22.1-41.1c-9.1,8.7-28.2,26.7-29.4,27.4C499.9,177.5,463,199,463,199
							l-11.3,4.6L436,200l-34.7,13.3l-28.4,15l-8.5,11.5l-9.8,7.9l-13.8,5.6l-14,7.8l-15.7,8.4c0,0-2.4,1.4-3.9,4.6
							c-1.5,3.3,5.9,12.3,5.9,12.3s7.9,5.3,11.8,4c3.9-1.3,17.4-5.7,17.4-5.7l15.1-11.6l15-7.4l10.1-1.9l1,3.4l-2.4,10.6l-6.7,11.7
							c0,0-1.6,7.2-2.3,8.2c-0.7,1-6,12.2-6.5,14.1c-0.5,1.9-9,13.7-9,13.7l-9.2,15.8l-3.1,2.7l-8.7,8.8l-6.1,8.6L316,373.6
							c0,0-3.9,2.7-4.7,5.7s-2.3,6.6-1.4,8.3c0.9,1.8,5.9,6.8,5.9,6.8s1.5,0.3,5.6-0.3c4-0.6,9.4-4.6,9.4-4.6l2.7-0.8l4.3,2.3l6,0
							l6.1-2.2l7.4-3.5l5.2-2.2l5,0.4l8.1,0.1l5.7-2.3l2.7-2.2l5.1,3.2l8.9,3.5l9.1-2.9l5-5.7l7.6-10.6l3.7-4.9l4.4,1.1l7-4.6
							l31.2-16.5l8.7-15.1l15.7-18.8l11.8-15.2l10.9-28.2l21.1-17.9l28-19.9l2.3-1.7C561.2,210.9,556.7,201,553.1,190.4z"/>
						<path class="st2" d="M553.1,190.4c-6.9-13.8-13.6-28.5-22.1-41.1c-7.4,7-19.7,18.8-27,25.5c-1.3,1.2-2.7,2.3-4.3,3.2
							c0,0-36.6,21.4-36.6,21.4c0,0-11.3,4.7-11.4,4.7c0,0-0.1,0.1-0.1,0.1s-0.1,0-0.1,0s-15.6-3.4-15.6-3.4s0.3,0,0.3,0
							c0.1,0-34.9,13.6-34.5,13.4c0,0-28.3,15.2-28.3,15.2s0.3-0.3,0.3-0.3l-8.4,11.5l-0.1,0.1l-0.1,0.1l-9.8,7.9
							c0,0-0.1,0.1-0.1,0.1s-0.2,0.1-0.2,0.1s-13.8,5.7-13.8,5.7s0.1-0.1,0.1-0.1c-6.8,4-16.7,9.3-23.6,13.1c0,0-5.9,3.2-5.9,3.2
							c-1.1,0.7-2.2,1.9-2.8,3.1c-0.2,0.4-0.5,1-0.5,1.1c-0.1,0.5,0.2,1.5,0.6,2.4c1.3,2.9,3.3,5.6,5.3,8.1c0,0-0.3-0.3-0.3-0.3
							c2,1.3,4.3,2.5,6.5,3.3c1.5,0.5,2.8,0.8,4.1,0.3c0.9-0.4,15.7-5.2,17-5.7c0,0-0.5,0.3-0.5,0.3s15-11.6,15-11.6
							c0.1-0.1,0.2-0.2,0.3-0.2c0,0,14.9-7.4,14.9-7.4l0.2-0.1c0,0,0.3-0.1,0.3-0.1l10-2c0,0,1.7-0.3,1.7-0.3s0.5,1.7,0.5,1.7
							c0.1,0.4,1,3.6,1.1,3.9c0,0-0.1,0.5-0.1,0.5l-2.4,10.6c0,0-0.1,0.3-0.1,0.3l-0.1,0.3l-6.6,11.7l0.2-0.5
							c-0.7,2.8-1.2,5.6-2.3,8.3c-2.7,5-5,10.5-7.2,15.6c-2.5,4.2-6.1,9.2-8.5,12.6c0,0-9.2,15.8-9.2,15.8s-0.2,0.3-0.2,0.3
							l-0.2,0.2l-3.1,2.7c0,0,0.1-0.1,0.1-0.1S337,354,337,354s0.2-0.2,0.2-0.2s-6.1,8.6-6.1,8.6l-0.1,0.2l-0.2,0.1
							c0,0-13.6,12.3-13.7,12.4c-1.6,1.2-3.3,2.7-4,4.4c-0.2,0.7-0.4,1.5-0.6,2.2c-0.5,1.7-1.2,3.4-1,5c1.4,2.2,3.7,4.4,5.6,6.4
							c0,0-0.9-0.5-0.9-0.5c1.7,0.1,3.6-0.1,5.3-0.4c3-0.7,5.8-2.5,8.3-4.2c0,0,0.3-0.2,0.3-0.2s0.3-0.1,0.3-0.1
							c0.7-0.2,2.8-0.8,3.4-1c0,0,0.6,0.3,0.6,0.3l4.3,2.3c0,0-0.8-0.2-0.8-0.2s6,0.1,6,0.1s-0.6,0.1-0.6,0.1s6.1-2.2,6.1-2.2
							l-0.1,0.1c3.7-1.8,8.9-4.2,12.7-5.7c0,0,0.4-0.1,0.4-0.1s0.4,0,0.4,0c1.1,0.1,3.8,0.3,4.8,0.4c1,0.1,7,0.1,8.1,0.1
							c0,0-0.6,0.1-0.6,0.1s5.7-2.3,5.7-2.3l-0.4,0.2l2.7-2.1c0,0,0.8-0.6,0.8-0.6s0.8,0.5,0.8,0.5l5.1,3.2l-0.2-0.1l8.8,3.6
							c0,0-0.9,0-0.9,0s9.1-2.9,9.1-2.9s-0.6,0.4-0.6,0.4s5-5.7,5-5.7s-0.1,0.1-0.1,0.1s5.7-7.7,5.7-7.7c1.8-2.4,4.3-5.8,6.2-8.2
							c1.1,0.3,4,1,5.1,1.3c0,0-0.8,0.1-0.8,0.1s7-4.6,7-4.6c0.1,0,31.3-16.3,31.4-16.3c0,0-0.3,0.3-0.3,0.3s8.8-15,8.8-15
							s0-0.1,0-0.1s0,0,0,0c2.4-2.9,15.5-18.2,17.6-21c2.3-2.9,7.8-10,10.1-12.9c-0.1,0.4,11-28.1,11-28.1c0,0,21.2-17.9,21.2-17.9
							c8.4-6,22-15.4,30.3-21.5C561.7,213.1,557,201.7,553.1,190.4L553.1,190.4z M553.1,190.4c3.9,11.4,8.7,22.5,11.4,34.3
							c-8.3,6.1-21.7,15.5-30.3,21.6c0,0-21.1,18-21.1,18c0.3-0.4-10.8,28.3-10.8,28.2c-2.3,3.1-7.8,10.1-10,13.1
							c-1.9,2.7-15,18.2-17.3,21.2c0.4-0.5-8.7,15.1-8.5,15.1c0,0-0.1,0.2-0.1,0.2l-0.2,0.1c0-0.1-31.4,16.9-31.1,16.6
							c0,0-7,4.7-7,4.7s-0.4,0.2-0.4,0.2s-0.4-0.1-0.4-0.1s-4.4-1.1-4.4-1.1l1.1-0.4c-1.7,2.2-4.1,5.5-5.6,7.7c0,0-5.6,7.8-5.6,7.8
							c0,0,0,0,0,0s-5,5.8-5,5.8l-0.2,0.3l-0.3,0.1l-9.1,3c0,0-0.4,0.1-0.4,0.1s-0.4-0.2-0.4-0.2s-8.9-3.4-8.9-3.4
							c-0.1,0-0.2-0.1-0.2-0.1c0,0-5.1-3.2-5.1-3.2s1.6-0.1,1.6-0.1s-2.7,2.2-2.7,2.2s-0.2,0.1-0.2,0.1s-0.2,0.1-0.2,0.1
							s-5.7,2.3-5.7,2.3s-0.3,0.1-0.3,0.1s-0.3,0-0.3,0c-1.2,0-7.2-0.1-8.2,0c-1.1-0.1-3.8-0.3-4.9-0.3c0,0,0.7-0.1,0.7-0.1
							s-3.2,1.4-3.2,1.4c-2.4,1-7.1,3.3-9.4,4.4c0,0-0.1,0-0.1,0s-6.1,2.3-6.1,2.3s-0.3,0.1-0.3,0.1s-0.3,0-0.3,0s-6,0-6,0
							s-0.4,0-0.4,0s-0.4-0.2-0.4-0.2s-4.3-2.3-4.3-2.3s1.3,0.1,1.3,0.1l-2.7,0.8l0.5-0.3c-1.2,0.9-2.3,1.6-3.6,2.3
							c-2.5,1.5-5.3,2.7-8.2,2.9c-1.7,0.2-3.4,0.4-5.1,0c-1.6-1.7-3.2-3.3-4.8-5.1c-0.8-1.2-1.6-1.5-2.2-3.2
							c-0.8-3.1,0.7-5.8,1.4-8.7c0.5-2.8,3.9-6,5.3-6.9c0,0,13.5-12.3,13.5-12.3s-0.3,0.3-0.3,0.3s6.1-8.6,6.1-8.6s0.1-0.1,0.1-0.1
							s0.1-0.1,0.1-0.1c0,0,8.7-8.9,8.8-8.9c0,0,0.1,0,0.1,0s3.1-2.7,3.1-2.7l-0.4,0.5c0-0.1,9.1-15.8,9.2-15.9
							c2-2.7,3.9-5.5,5.8-8.3c1-1.6,2.2-3.3,3-4.9c1.7-4.5,3.8-8.6,5.9-13c0.2-0.5,0.6-1.1,0.9-1.6c0.3-0.8,0.6-1.8,0.8-2.7
							c0.5-1.7,0.9-3.4,1.3-5.1c0,0,0.1-0.2,0.1-0.2s6.7-11.7,6.7-11.7l-0.2,0.5c0,0,2.4-10.6,2.4-10.6l0,1c0,0-0.9-3.4-0.9-3.4
							s2.2,1.4,2.2,1.4l-10.1,1.9c0,0,0.5-0.2,0.5-0.2s-15,7.3-15,7.3c1.5-1.1-15.2,11.6-14.8,11.3c0,0-0.2,0.2-0.2,0.2
							s-0.3,0.1-0.3,0.1c-1.3,0.4-16,5.2-17,5.6c-2,0.8-4.5,0.2-6.3-0.4c-2.7-1-5.1-2.3-7.5-3.9c0,0-0.1-0.2-0.1-0.2
							c-2.2-2.8-4.2-5.6-5.6-8.9c-0.5-1.3-1-2.5-0.7-4.1c0.8-2.6,2.6-4.8,4.9-6.2c9.2-4.9,20.5-10.8,29.7-15.9c0,0,0.1,0,0.1,0
							s0.1,0,0.1,0s13.8-5.6,13.8-5.6s-0.3,0.2-0.3,0.2s9.9-7.8,9.9-7.8l-0.2,0.2l8.6-11.4l0.1-0.2l0.2-0.1c0,0,28.5-14.8,28.5-14.9
							c0.2,0,34.8-13.1,35-13.1c0,0,0.2,0,0.2,0s15.6,3.6,15.6,3.6s-0.3,0-0.3,0c0,0,11.5-4.6,11.3-4.5c1.6-1.2,41.1-22.9,41-24.2
							c7.5-6.7,19.8-18.4,27.1-25.3c2.4,2.8,4.3,6.6,6.3,9.9C542.8,169.3,548,179.8,553.1,190.4L553.1,190.4z"/>
					</g>
					<g>
						<path class="st2" d="M384.3,333.9c-2.6,5.9-5.4,11.7-8.8,17.1c0,0,0.2-1.1,0.2-1.1c0.1,0.7-0.1,1.3-0.5,1.8
							c-1.2,1.6-3.1,2.2-4.8,3c0,0-5,2.2-5,2.2l1.1-1.1c-0.5,1.7-1,3.4-1.5,5c-2.7,1.5-5.4,3.1-8.2,4.5c-2.4,1-5.7,2.4-8.1,3.3
							c0,0,0.3-0.1,0.3-0.1c-2.1,1.2-5.2,3.1-7.3,4.3c0,0,0.4-0.3,0.4-0.3s-3.9,4-3.9,4l-3.9,4c0,0,0.3-0.6,0.3-0.6
							c-0.2,1.4-0.4,3.9-0.6,4.8c0,0,0.3,3.3,0.3,3.3s-0.2-0.3-0.2-0.3c0.9,0.4,1.7,0.8,2.6,1.2c-1-0.2-2-0.4-3-0.6
							c0,0-0.1-0.2-0.1-0.2l-0.9-3.2c-0.1-1.8-0.2-3.6-0.2-5.4c1.9-2.4,5.3-6.8,7.2-9.2c2.2-1.5,5.3-3.6,7.6-5.1
							c2.2-1,5.5-2.4,7.8-3.4c1.5-0.9,5.1-2.8,7.3-4c0,0-0.9,1.1-0.9,1.1c0.5-1.4,1-2.9,1.5-4.3l0.3-0.9c0.3-0.1,5.4-2,5.9-2.2
							c1.1-0.5,2.7-0.8,3.6-1.6c0,0,0,0,0,0c0,0.3-0.1,0.2,0,0.6c0,0,0.2-1.1,0.2-1.1C377,344.3,380.4,339,384.3,333.9L384.3,333.9z
							"/>
					</g>
					<g>
						<path class="st2" d="M432.3,337c-3,1.2-7.5,3.5-10.5,4.9c-3,0.8-9,2.3-12.1,3c-2.7,0-6.4-0.3-9.1-0.4c0,0,1-0.2,1-0.2
							c-1.9,1-3.9,2-5.8,3c0,0,0.5-0.4,0.5-0.4c-1.3,1.3-2.7,2.7-4,4l0.6-1.5l0.1,5.2c0,0-0.6-1.4-0.6-1.4c1.6,1.6,3.2,3.1,4.7,4.7
							l-0.8-0.5c2,0.6,6,1.6,7.1,2.1c0,0,5.2,0.7,5.2,0.7c1.5,0.2,4.2,0.6,5,0.8c2.7,0,5.4,0.1,8.1,0.2c1.6,0.1,3.3,0.3,4.9,0.4
							c-1.1,0.1-2.1,0.3-3.2,0.4c-3.2,0.3-6.4,0.9-9.6,1.2c-3.1-0.1-7.5-0.3-10.6-0.5c-2.7-0.5-5.4-1.2-8.1-1.8
							c-2-1.8-3.9-3.6-5.9-5.5c0-1.2-0.2-5.7-0.2-6.9c1.6-1.6,3.3-3.2,4.9-4.8c0,0,0.3-0.1,0.3-0.1c2.1-1,4.2-2.1,6.4-3.1
							c0,0,0.5,0,0.5,0c2.5,0.3,6.1,0.6,8.6,0.9c0,0-0.4,0-0.4,0l6.1-0.9l6.1-0.8C423.9,339.1,428.8,337.5,432.3,337L432.3,337z"/>
					</g>
					<g>
						<path class="st2" d="M396.6,359.5c-4.7-1-9.4-2.4-14-3.8c-1.5-0.2-4.9-0.9-7-1.4c0,0,0.8,0,0.8,0c-2.6,0.6-5.3,1.2-7.9,1.7
							c-1.2,0.1-2.3,0.9-2.7,2.1c0,0,0.1-0.5,0.1-0.5l-0.3,4.7c0,0-0.5-1.4-0.5-1.4c1.7,2,3.4,4.1,5,6.2l-0.4-0.3
							c3.1,2.2,6.4,4.7,9.3,7.2c1,0.8,2,1.7,3,2.5c0,0-0.2-0.1-0.2-0.1c1.7,0.8,3.4,1.7,5.1,2.6c-1.9-0.4-3.8-0.8-5.6-1.3
							c-4.6-2.6-9.2-5.5-13.8-8.1c-1.9-2-3.7-4.1-5.6-6.1c0,0-0.5-0.6-0.5-0.6l0-0.8c0,0,0.2-4.7,0.2-4.7s0-0.2,0-0.2
							c0.5-2.8,3.7-5.1,5.8-5.1c2.7-0.5,5.3-0.9,8-1.3c0,0,0.4-0.1,0.4-0.1c2.4,0.7,4.9,1.5,7.3,2.2
							C387.9,355,392.4,357.2,396.6,359.5L396.6,359.5z"/>
					</g>
				</g>
				<g>
					<path class="st2" d="M454.8,229.8c-10.7,10.2-22.6,18.8-34.8,27c-6.3,1.8-12.8,3.6-19.2,5.1c-2.5,0.4-5,0.8-7.6,1.1
						c-2.5,0.4-5,0.6-7.5,0.9c2.4-0.9,4.8-1.7,7.2-2.4c2.2-0.7,5.2-1.6,7.1-2.2c6.1-2.2,12.4-4.4,18.5-6.3c0,0-0.5,0.3-0.5,0.3
						c6.7-4.7,13.5-9.2,20.5-13.5C443.8,236.3,449.2,232.9,454.8,229.8L454.8,229.8z"/>
				</g>
				<g>
					<path class="st2" d="M376.7,309.6c9.8,1.5,19.5,3.6,29.2,5.8c0,0-0.5-0.1-0.5-0.1c6.5-0.3,12.9-0.5,19.4-0.6
						c6.5-0.1,12.9-0.1,19.4,0c0,0-0.8,0.2-0.8,0.2c2.8-1.6,6.8-3.8,9.8-5.3c3.3-1.7,6.6-3.4,10-5c-2.9,2.3-5.9,4.4-8.9,6.6
						c-2.9,2-6.6,4.6-9.4,6.5c-6.6,0.4-13.3,0.7-19.9,0.9c-6.6,0.2-13.1,0.3-19.7,0.2C395.6,316.1,386,313.2,376.7,309.6
						L376.7,309.6z"/>
				</g>
				<g>
					<path class="st2" d="M457.7,258.2c-3.8,10.3-10,19.7-17.4,27.7c-12.1,14.2-29.2,23.7-48.1,23.5c10.6-2.4,20.5-6.2,29.4-12.2
						c5.9-3.9,11-8.8,16-13.9C445.2,275.6,451.8,267.3,457.7,258.2L457.7,258.2z"/>
				</g>
			</g>
			<path class="st3" d="M411.6,257.3"/>
		</g>
		<polyline class="st3" points="460.8,204.7 475.1,221.4 495.2,232.3 510.4,246.9 		"/>
	</g>
	<polygon class="st4" points="145.6,88.4 222.2,206.9 115.7,227.6 104.7,240.4 116.6,258.9 239.3,233.5 436,537.8 463.2,520.2 
		272,224.3 364.4,208.6 376.1,194.8 365.4,178.2 253.8,199.3 171.3,71.8 154.6,74.2 	"/>
	<g>
		<g>
			<path class="st1" d="M299,317.9l-12.6-4.3l-11.7-4.8l-41.5-10l-4.9,0.4l-9.6,3.5l-3.2-0.9l-2.3-0.6l24-13.7l17.9-10.3l10.9-7.4
				c0,0,4.5-3.5,5.8-12.3c1.3-8.8-10.3-5.3-10.3-5.3l-20.7,8.2L203,277.2l-8.8,4.3l-37.9,29.7l-21,14.8l-32.7,57.9l-17.4,27.5
				l-27.9,24.5l-1,0.3c4.7,10.9,16,25.9,22.2,36.5c5.5,5.7-2.5-2.3,4.5,4.1c1.8,2.5,12.6,13.8,14.8,16.2c18.3-10.4,32.7-21,32.7-21
				l33.1-29.7l34.8-39.2l25.3-16.8l8.8-0.7l4.4-0.4l10.3-0.8l12.3,5.9l12,2l3-6.1l-7.2-9.8l-9.2-10.1l-24.2-5.3l-25.2,4.9l1.8-4.2
				l27.2-11.5l26.1,8.1l13.6,10.7l6.3,1.3c0,0,3,0.6,6.8-3.2c3.8-3.7,2.2-5.4,2.6-6.3c0.4-0.9-7.9-6.3-7.9-6.3l-7.5-7.6l-5.1-5.8
				l-5.3-3.2l-15.1-8l-7.9-4.1l11.1-0.9l13.4,3.1l11.1,2.7l7.9,2.7c0,0,3.7,1,7.1,0.1c3.4-0.9,7.1-1.9,9.4-5.7
				c2.3-3.8,2.4-6.9,2.4-6.9L299,317.9z"/>
			<path class="st2" d="M299,317.9c0,0-12.3-4.1-12.3-4.1c-3.4-1.3-8.5-3.5-12-4.9c0.1,0-41.7-10-41.4-9.9c0,0-4.9,0.4-4.9,0.4
				c0.2-0.1-9.6,3.6-9.5,3.6c-0.3,0-5.9-1.6-6.1-1.6c0,0,0.4-0.2,0.4-0.2c0,0,42-24.1,41.9-24c0,0,8.5-5.9,8.5-5.9s2.1-1.5,2.1-1.5
				c1.9-1.6,3.2-3.9,4.2-6.2c3.2-8.4,2.3-13.3-8.1-10.7c-3.6,1.5-18.1,7.2-21.3,8.6c-11.2,5.1-26.5,11.8-37.7,16.9
				c0,0-8.2,4.1-8.2,4.1l0.2-0.1c-5.5,4.3-31.3,24.9-36.2,28.7c-2,1.7-5.3,3.9-7.5,5.4c0,0-15,10.7-15,10.7
				c1.8-2.5-24.2,43.4-23.7,42.8c-4.1,7.2-7.9,14.5-12.4,21.4c0,0-13.2,21-13.2,21s-0.1,0.2-0.1,0.2s-0.2,0.2-0.2,0.2l-27.9,24.6
				l-0.3,0.3c0,0-0.4,0.1-0.4,0.1s-1,0.3-1,0.3s1.1-2.5,1.1-2.5c6,12.9,14.9,24,22.2,36.3c0,0-0.3-0.4-0.3-0.4
				c0.5,0.5,1.6,1.7,2.1,2.2c1.7,1.9-1,4.4-2.8,2.7c-0.4-0.5-0.9-0.9-1.1-1.5c-0.5-1.5,1-3,2.5-2.5c0.5,0.2,1,0.6,1.5,1
				c0.6,0.5,1.9,1.7,2.4,2.2c3.9,4.8,10.6,11.6,14.8,16.2c0,0-2.5-0.4-2.5-0.4c8.4-4.8,16.6-9.9,24.6-15.3c2.4-1.5,6-4.2,7.8-5.4
				c0,0,33.2-29.6,33.2-29.6c-0.8,0.9,35-39.2,34.8-38.9c0.1-0.1,0.2-0.2,0.3-0.3c0,0,25.3-16.6,25.3-16.6s0.3-0.2,0.3-0.2
				s0.4,0,0.4,0s23.5-1.7,23.5-1.7l0.4,0l0.3,0.2c0,0,12.2,6,12.2,6s-0.4-0.1-0.4-0.1s12,2.1,12,2.1s-1.4,0.7-1.4,0.7s3-6.1,3-6.1
				s0.1,1.3,0.1,1.3s-7.1-9.8-7.1-9.8l0.1,0.1l-9.1-10.2l0.6,0.3c0,0-24.2-5.5-24.2-5.5s0.4,0,0.4,0s-25.2,4.8-25.2,4.8
				s-1.6,0.3-1.6,0.3c0.5-1.1,2-4.6,2.4-5.7c0,0,0.1-0.3,0.1-0.3s0.3-0.1,0.3-0.1s27.2-11.3,27.2-11.3s0.2-0.1,0.2-0.1
				s0.2,0.1,0.2,0.1c0,0.1,26.1,8.2,26.1,8.3c0.1,0.1,13.6,10.8,13.6,10.9c0,0-0.2-0.1-0.2-0.1s3.8,0.8,3.8,0.8l1.9,0.4
				c3.2,0.7,6.1-1.7,8.1-4c1.1-1.2,1.7-2.7,1.5-4.3c0-0.2,0-0.4,0-0.6c0,0,0.1-0.2,0.1-0.2c-1.9-2.1-5.1-4.2-7.7-5.9c0,0,0,0,0,0
				s0,0,0,0s-6.4-6.6-6.4-6.6c-1.8-1.7-4.6-5.2-6-6.9c-7.7-4.8-20.2-11-28.2-15.4c0,0-0.5-0.3-0.5-0.3s0.6,0,0.6,0
				c0,0,11.1-0.9,11.1-0.8c7,1.6,17.5,4.1,24.4,5.9c0,0,8.1,2.7,8.1,2.7c4.2,1.1,8.6,0,12.4-1.9c2.6-1.3,4.3-3.8,5.3-6.4
				c0.6-1.3,0.9-2.8,1-4.1C306.6,321.1,299,317.9,299,317.9L299,317.9z M299,317.9c0,0,7.6,3.2,7.6,3.2c-0.1,1.4-0.5,2.8-1,4.2
				c-0.5,1.3-1.2,2.6-2.1,3.7c-1.7,2.3-4.5,3.6-7.2,4.3c-2.7,0.9-5.7,1.1-8.5,0.4c0,0-8.1-2.7-8.1-2.7c-6.9-1.7-17.4-4.2-24.4-5.7
				c0.2,0-11.1,0.9-11,0.9c0,0,0.1-0.3,0.1-0.3s14.2,7.5,14.2,7.5c1.1,0.6,7.8,4.1,8.9,4.7c1.3,0.7,3.9,2.4,5.2,3.1
				c1.8,2,4.3,5,6.2,6.9c0,0,6.5,6.5,6.5,6.5c2.4,1.7,5.7,3.5,7.9,6c0.1,0.1,0.2,0.4,0.1,0.6c-0.1,0.5,0.1,1,0,1.5
				c0,1.4-0.8,2.7-1.6,3.7c-2.1,2.5-5.3,5.1-8.7,4.3c-1.1-0.2-4.6-0.9-5.8-1.2c0,0-0.1,0-0.1,0s-0.1-0.1-0.1-0.1
				s-13.7-10.7-13.7-10.7l0.2,0.1c0,0-26.1-8-26.1-8s0.4,0,0.4,0s-27.1,11.6-27.1,11.6s0.4-0.4,0.4-0.4l-1.8,4.3l-0.9-1.2l25.2-5.1
				c0,0,0.2,0,0.2,0s0.2,0,0.2,0s24.2,5.2,24.2,5.2s0.3,0.1,0.3,0.1s0.2,0.3,0.2,0.3s9.2,10.1,9.2,10.1s0,0,0,0s0,0.1,0,0.1
				s7.2,9.7,7.2,9.7s0.4,0.6,0.4,0.6s-0.3,0.7-0.3,0.7c-0.2,0.5-3.2,6.7-3.3,7c0,0-1-0.2-1-0.2s-12-2-12-2l-0.2,0l-0.2-0.1
				l-12.3-5.9l0.7,0.1c0,0-23.5,2-23.5,2s0.7-0.3,0.7-0.3l-25.2,16.9c1.6-1.5-34.8,39.3-34.4,38.9c0,0-0.1,0.1-0.1,0.1
				s-0.1,0.1-0.1,0.1c-0.1,0-33.1,29.9-33.2,29.9c-10.6,7.7-21.5,14.7-32.9,21.2c0,0-1.4,0.8-1.4,0.8s-1.1-1.2-1.1-1.2
				c-3.5-3.7-9.8-10.4-13.1-14.2c-0.6-0.7-1.2-1.4-1.9-2.3c0,0,0.3,0.3,0.3,0.3c-0.5-0.4-1.7-1.6-2.2-2c0,0-0.3-0.3-0.3-0.3
				s-0.1-0.1-0.1-0.1c0,0,0,0,0,0l0.1,0c0.3,0.2,0.8,0.3,1.2,0.2c1.3-0.1,2.1-1.7,1.5-2.8c-0.1-0.1-0.1-0.1-0.1-0.2c0,0,0,0,0,0
				c0,0,0.1,0.1,0.1,0.1s0.1,0.1,0.1,0.1s0.1,0.1,0.1,0.1s0,0,0,0c0,0-0.1-0.1-0.1-0.1c-1.3-1.2-3.7,0.1-3.1,2.1
				c0.1,0.2,0.2,0.4,0.3,0.5c0,0,0,0,0,0s0.1,0.1,0.1,0.1s0,0,0,0s0,0,0,0s-0.1-0.1-0.1-0.1s-0.2-0.2-0.2-0.2s-0.3-0.4-0.3-0.4
				S77,474,77,474c-7.7-12.9-17.4-25-23.3-39c0,0,2-0.6,2-0.6l1-0.3c0,0-0.7,0.4-0.7,0.4S84,410,84,410s-0.3,0.4-0.3,0.4l13.3-20.8
				c0.6-1.1,3.6-5.6,4.1-6.5c0.5-0.8,1.8-3.2,2.3-4c4.1-7.1,26.3-46,30.9-53.9c5.4-3.8,17.8-12.2,22.9-16c5-3.8,31.1-24.2,36.6-28.4
				c9.4-4.8,23.9-10.7,33.6-15c4.7-2,12.1-5.4,16.9-7.2c0,0,17.1-6.7,17.2-6.7c5.7-1.6,12.6-0.9,10.7,6.9c-0.9,4.2-2.5,8.7-6,11.5
				c0,0-2.2,1.4-2.2,1.4c0,0-8.6,5.8-8.6,5.8c0,0-42,23.9-42,23.9l0-0.4c0,0,5.5,1.5,5.5,1.5s-0.1,0-0.1,0c0,0,9.6-3.5,9.6-3.5
				c0,0,4.9-0.4,4.9-0.4s0,0,0,0s0,0,0,0c0,0,41.5,10.1,41.5,10.1c3.4,1.4,8.6,3.6,12,5C286.7,313.8,299,317.9,299,317.9L299,317.9z
				"/>
		</g>
		<g>
			<path class="st2" d="M168.6,319.7c0.3,0.2,0.8,0.1,1.1,0.2c0.7,0,2.8-0.2,3.5-0.3c0,0-0.4,0.1-0.4,0.1c1.6-1,3.2-2,4.9-2.9
				c5-2.8,9.9-5.7,15-8.1c7.1-2.9,14-5.8,21.4-7.9c-6.1,4.7-12.7,8.4-19.7,11.5c-6.8,3.5-13.6,6.7-20.9,8.9c0,0-0.3,0.1-0.3,0.1
				s-0.1,0-0.1,0c-1.4-0.2-2.8-0.5-4.1-1.1C168.9,320,168.6,319.9,168.6,319.7L168.6,319.7z"/>
		</g>
		<g>
			<path class="st2" d="M189.8,337.6c2.6-1.3,6.7-3,8.8-3.8c3.6-2.1,7.2-4,10.9-5.8c5.1-2.1,10.2-4,15.3-5.7l-0.3,0.1
				c1.8-0.9,3.7-1.9,5.5-2.7l0.6-0.3l0.4,0.1c1.6,0.4,3.2,0.9,4.8,1.4c2.3,1.4,4.6,2.8,6.7,4.3c-2.2-0.6-6.2-1.9-7.4-2.3
				c-1.6-0.2-3.2-0.3-4.8-0.5l1-0.2c-1.7,1.2-3.5,2.3-5.2,3.4c-5.1,2.2-10.2,4.2-15.4,6c-3.1,1.3-7.7,3.2-11.4,4.5
				C196.3,336.7,193.1,337.2,189.8,337.6L189.8,337.6z"/>
		</g>
		<g>
			<path class="st2" d="M190.7,369c5.1-3.6,11.9-4.7,17.9-2.9C203.5,369.7,196.7,370.8,190.7,369L190.7,369z"/>
		</g>
	</g>
</g>
</svg>
